<svg width="200" height="35" viewBox="0 0 200 35" fill="none" xmlns="http://www.w3.org/2000/svg">
  <!-- Cloud icon (larger and centered vertically) -->
  <path d="M40 18c0-5-4.5-9-9.9-9-0.9 0-1.7 0.1-2.5 0.3C26.1 6 22 3 17 3 10.9 3 6 7.9 6 14c0 0.9 0.1 1.7 0.3 2.5C4.3 18.3 3 21 3 24c0 5 4 9 9 9h20c5 0 9-4 9-9 0-2.4-0.9-4.6-2.5-6.3C39.5 17.3 40 17.6 40 18z" fill="white"/>
  
  <!-- Text -->
  <text x="55" y="25" fill="white" font-family="Arial, Helvetica, sans-serif" font-size="20" font-weight="bold">
    application
  </text>
</svg>
