<svg xmlns="http://www.w3.org/2000/svg" xmlns:xlink="http://www.w3.org/1999/xlink" viewBox="0 0 171 38"><g transform="translate(1.583 7.389)"><path d="M 156.993 7.077 L 160.017 7.077 L 160.134 8.668 C 160.503 8.086 161.014 7.608 161.616 7.279 C 162.22 6.951 162.898 6.783 163.583 6.791 C 166.529 6.791 167.994 8.605 167.978 12.232 L 167.978 12.873 L 168.001 12.873 L 168.001 18.953 L 164.812 18.953 L 164.812 12.873 L 164.789 12.873 C 164.789 11.733 164.592 10.942 164.198 10.498 C 163.821 10.039 163.269 9.809 162.544 9.809 C 161.772 9.809 161.182 10.062 160.773 10.569 C 160.379 11.06 160.181 11.772 160.181 12.707 L 160.181 18.954 L 156.993 18.954 Z M 148.819 19.239 C 147.622 19.239 146.551 18.978 145.605 18.455 C 144.679 17.935 143.912 17.172 143.385 16.246 C 142.865 15.296 142.605 14.219 142.605 13.016 C 142.605 11.813 142.865 10.744 143.385 9.809 C 143.899 8.881 144.659 8.116 145.582 7.6 C 146.512 7.062 147.575 6.792 148.772 6.792 C 149.968 6.792 151.031 7.062 151.96 7.6 C 152.89 8.107 153.653 8.874 154.158 9.809 C 154.692 10.744 154.961 11.813 154.961 13.016 C 154.961 14.219 154.701 15.296 154.18 16.246 C 153.667 17.174 152.906 17.939 151.984 18.455 C 151.055 18.978 150 19.239 148.819 19.239 Z M 145.888 13.016 C 145.888 13.981 146.157 14.773 146.691 15.391 C 147.244 15.993 147.953 16.293 148.819 16.293 C 149.669 16.293 150.362 15.993 150.897 15.391 C 151.432 14.773 151.7 13.981 151.7 13.016 C 151.7 12.05 151.424 11.266 150.874 10.664 C 150.338 10.046 149.638 9.737 148.772 9.737 C 147.937 9.737 147.244 10.046 146.691 10.664 C 146.157 11.266 145.888 12.05 145.888 13.016 Z M 137.203 7.077 L 140.393 7.077 L 140.393 18.954 L 137.203 18.954 Z M 138.809 5.201 C 138.306 5.201 137.873 5.018 137.511 4.654 C 137.338 4.489 137.2 4.29 137.107 4.069 C 137.013 3.849 136.966 3.611 136.967 3.371 C 136.967 2.865 137.148 2.429 137.511 2.065 C 137.889 1.7 138.322 1.518 138.809 1.518 C 139.297 1.518 139.723 1.7 140.086 2.065 C 140.447 2.429 140.629 2.865 140.629 3.371 C 140.629 3.862 140.447 4.289 140.086 4.654 C 139.74 5.018 139.314 5.201 138.809 5.201 Z M 132.376 19.239 C 131.07 19.239 130.069 18.915 129.377 18.266 C 128.699 17.617 128.361 16.683 128.361 15.463 L 128.361 9.786 L 126.471 9.786 L 126.471 7.077 L 128.361 7.077 L 128.361 3.372 L 131.551 3.372 L 131.551 7.077 L 134.479 7.077 L 134.479 9.786 L 131.551 9.786 L 131.551 14.75 C 131.551 15.273 131.653 15.661 131.857 15.914 C 132.078 16.152 132.409 16.27 132.85 16.27 C 133.165 16.27 133.52 16.128 133.913 15.843 L 135.046 18.242 C 134.653 18.542 134.22 18.78 133.747 18.954 C 133.275 19.144 132.819 19.239 132.376 19.239 Z M 121.931 17.6 C 121.27 18.693 120.183 19.239 118.672 19.239 C 117.254 19.239 116.151 18.923 115.363 18.289 C 114.591 17.656 114.206 16.761 114.206 15.605 C 114.206 14.354 114.624 13.404 115.458 12.755 C 116.292 12.105 117.474 11.78 119.002 11.78 L 121.813 11.78 C 121.593 10.308 120.876 9.572 119.664 9.572 C 118.625 9.572 117.837 10.015 117.301 10.902 L 114.489 9.927 C 114.867 9.041 115.481 8.297 116.333 7.695 C 117.199 7.093 118.309 6.792 119.664 6.792 C 121.427 6.792 122.765 7.291 123.68 8.288 C 124.593 9.27 125.034 10.632 125.003 12.374 L 124.955 18.954 L 121.978 18.954 Z M 117.466 15.51 C 117.466 15.843 117.624 16.112 117.939 16.318 C 118.253 16.508 118.687 16.603 119.239 16.603 C 119.727 16.603 120.167 16.484 120.561 16.246 C 120.97 16.009 121.294 15.7 121.53 15.32 C 121.766 14.94 121.884 14.544 121.884 14.133 L 120.136 14.133 C 119.175 14.133 118.49 14.251 118.08 14.488 C 117.671 14.71 117.466 15.051 117.466 15.51 Z M 107.665 19.239 C 106.437 19.239 105.342 18.978 104.382 18.455 C 103.442 17.936 102.659 17.173 102.114 16.246 C 101.578 15.296 101.311 14.219 101.31 13.016 C 101.31 11.813 101.578 10.744 102.113 9.809 C 102.635 8.871 103.414 8.104 104.357 7.6 C 105.319 7.062 106.406 6.792 107.618 6.792 C 108.83 6.792 109.917 7.093 110.879 7.695 C 111.855 8.297 112.563 9.144 113.004 10.237 L 110.004 11.305 C 109.783 10.846 109.428 10.465 108.988 10.212 C 108.529 9.943 108.007 9.804 107.477 9.809 C 106.626 9.809 105.933 10.11 105.398 10.712 C 104.861 11.298 104.593 12.066 104.593 13.016 C 104.593 13.95 104.861 14.719 105.398 15.32 C 105.949 15.922 106.657 16.223 107.524 16.223 C 108.075 16.223 108.578 16.08 109.035 15.795 C 109.492 15.495 109.831 15.099 110.051 14.608 L 113.075 15.676 C 112.618 16.8 111.908 17.679 110.948 18.313 C 109.988 18.931 108.894 19.239 107.665 19.239 Z M 95.908 7.077 L 99.098 7.077 L 99.098 18.954 L 95.908 18.954 Z M 97.514 5.201 C 97.272 5.203 97.032 5.155 96.809 5.061 C 96.586 4.967 96.384 4.829 96.216 4.654 C 96.043 4.489 95.905 4.29 95.812 4.069 C 95.718 3.849 95.671 3.611 95.672 3.371 C 95.672 2.865 95.853 2.429 96.216 2.065 C 96.594 1.7 97.027 1.518 97.514 1.518 C 98.002 1.518 98.428 1.7 98.79 2.065 C 99.154 2.429 99.335 2.865 99.334 3.371 C 99.334 3.862 99.152 4.289 98.79 4.654 C 98.445 5.018 98.019 5.201 97.514 5.201 Z M 89.859 1.851 L 93.048 1.851 L 93.048 18.954 L 89.86 18.954 Z M 75.789 7.077 L 78.813 7.077 L 78.932 8.716 C 79.299 8.121 79.811 7.631 80.42 7.291 C 81.034 6.958 81.735 6.792 82.522 6.792 C 83.593 6.792 84.53 7.046 85.333 7.552 C 86.152 8.059 86.774 8.78 87.2 9.714 C 87.641 10.649 87.861 11.749 87.861 13.016 C 87.861 14.267 87.641 15.368 87.2 16.318 C 86.774 17.252 86.152 17.973 85.333 18.479 C 84.531 18.986 83.593 19.239 82.522 19.239 C 81.75 19.239 81.065 19.081 80.467 18.764 C 79.864 18.427 79.353 17.946 78.979 17.363 L 78.979 23.706 L 75.789 23.706 Z M 78.979 13.016 C 78.979 13.981 79.231 14.773 79.735 15.391 C 80.255 15.993 80.916 16.293 81.719 16.293 C 82.538 16.293 83.215 15.985 83.751 15.368 C 84.287 14.75 84.554 13.966 84.554 13.016 C 84.554 12.066 84.286 11.29 83.75 10.687 C 83.231 10.07 82.562 9.762 81.743 9.762 C 80.924 9.762 80.255 10.062 79.735 10.664 C 79.231 11.266 78.979 12.05 78.979 13.016 Z M 61.602 7.077 L 64.625 7.077 L 64.744 8.716 C 65.111 8.121 65.623 7.631 66.231 7.291 C 66.847 6.958 67.547 6.792 68.334 6.792 C 69.405 6.792 70.342 7.046 71.145 7.552 C 71.964 8.059 72.586 8.78 73.012 9.714 C 73.453 10.649 73.673 11.749 73.673 13.016 C 73.673 14.267 73.453 15.368 73.012 16.318 C 72.586 17.252 71.964 17.973 71.145 18.479 C 70.343 18.986 69.406 19.239 68.334 19.239 C 67.563 19.239 66.878 19.081 66.279 18.764 C 65.676 18.427 65.165 17.946 64.791 17.363 L 64.791 23.706 L 61.602 23.706 Z M 64.791 13.016 C 64.791 13.981 65.043 14.773 65.547 15.391 C 66.067 15.993 66.728 16.293 67.531 16.293 C 68.35 16.293 69.027 15.985 69.562 15.368 C 70.098 14.75 70.366 13.966 70.366 13.016 C 70.366 12.066 70.098 11.29 69.562 10.687 C 69.043 10.07 68.374 9.762 67.555 9.762 C 66.736 9.762 66.067 10.062 65.547 10.664 C 65.043 11.266 64.791 12.05 64.791 13.016 Z M 55.951 17.6 C 55.29 18.693 54.203 19.239 52.691 19.239 C 51.274 19.239 50.172 18.923 49.384 18.289 C 48.613 17.656 48.227 16.761 48.227 15.605 C 48.227 14.354 48.644 13.404 49.479 12.755 C 50.314 12.105 51.495 11.78 53.022 11.78 L 55.833 11.78 C 55.612 10.308 54.896 9.572 53.684 9.572 C 52.645 9.572 51.857 10.015 51.321 10.902 L 48.51 9.927 C 48.888 9.041 49.502 8.297 50.352 7.695 C 51.219 7.093 52.329 6.792 53.684 6.792 C 55.448 6.792 56.786 7.291 57.699 8.288 C 58.613 9.27 59.053 10.632 59.022 12.374 L 58.976 18.954 L 55.999 18.954 Z M 51.486 15.51 C 51.486 15.843 51.643 16.112 51.958 16.318 C 52.273 16.508 52.706 16.603 53.258 16.603 C 53.746 16.603 54.187 16.484 54.581 16.246 C 54.99 16.009 55.313 15.7 55.549 15.32 C 55.786 14.94 55.904 14.544 55.904 14.133 L 54.156 14.133 C 53.196 14.133 52.511 14.251 52.101 14.488 C 51.692 14.71 51.487 15.051 51.486 15.51 Z" fill="rgb(255,255,255)"></path><path d="M 15.767 22.958 L 8.135 22.958 C 5.978 22.958 3.908 22.096 2.383 20.562 C 0.857 19.028 0 16.947 0 14.778 C 0 12.873 0.705 11.036 1.977 9.624 C 3.25 8.213 4.999 7.327 6.884 7.141 C 7.019 5.203 7.879 3.388 9.292 2.063 C 10.705 0.738 12.566 0.001 14.498 0.001 L 14.75 0.001 C 16.835 0 18.836 0.831 20.313 2.312 C 22.29 0.809 24.702 -0.003 27.181 0 L 27.754 0 C 33.742 0 38.596 4.881 38.596 10.902 C 38.596 17.56 33.229 22.956 26.608 22.956 Z" fill="rgb(255,255,255)"></path></g></svg>