<svg xmlns="http://www.w3.org/2000/svg" xmlns:xlink="http://www.w3.org/1999/xlink" viewBox="0 0 176 38"><g transform="translate(5.626 1.117)"><path d="M 167.256 16.967 L 163.135 17.223 C 163.066 16.871 162.909 16.542 162.68 16.267 C 162.434 15.966 162.118 15.729 161.761 15.577 C 161.388 15.401 160.94 15.313 160.419 15.313 C 159.722 15.313 159.133 15.461 158.655 15.758 C 158.175 16.048 157.936 16.437 157.936 16.926 C 157.936 17.314 158.09 17.643 158.4 17.911 C 158.711 18.18 159.243 18.396 159.997 18.559 L 162.934 19.153 C 164.512 19.478 165.689 20.002 166.464 20.723 C 167.239 21.445 167.627 22.393 167.626 23.568 C 167.626 24.635 167.312 25.572 166.686 26.378 C 166.066 27.185 165.214 27.814 164.128 28.267 C 163.05 28.712 161.806 28.935 160.398 28.935 C 158.249 28.935 156.538 28.486 155.262 27.588 C 153.993 26.682 153.25 25.451 153.033 23.896 L 157.46 23.662 C 157.594 24.321 157.918 24.823 158.432 25.169 C 158.947 25.509 159.605 25.678 160.409 25.678 C 161.198 25.678 161.832 25.526 162.311 25.222 C 162.797 24.911 163.044 24.511 163.051 24.024 C 163.05 23.827 163.002 23.632 162.912 23.457 C 162.821 23.282 162.692 23.13 162.533 23.015 C 162.195 22.746 161.673 22.541 160.968 22.4 L 158.158 21.838 C 156.573 21.52 155.392 20.968 154.618 20.182 C 153.85 19.398 153.466 18.397 153.466 17.18 C 153.466 16.132 153.748 15.23 154.311 14.474 C 154.881 13.717 155.68 13.134 156.71 12.724 C 157.746 12.313 158.958 12.108 160.345 12.108 C 162.395 12.108 164.008 12.543 165.185 13.414 C 166.369 14.283 167.06 15.468 167.256 16.967 Z M 150.546 16.967 L 146.425 17.223 C 146.353 16.872 146.198 16.544 145.971 16.267 C 145.724 15.966 145.408 15.729 145.051 15.577 C 144.676 15.401 144.23 15.313 143.708 15.313 C 143.011 15.313 142.423 15.461 141.944 15.758 C 141.464 16.048 141.225 16.437 141.225 16.926 C 141.225 17.314 141.38 17.643 141.69 17.911 C 142 18.18 142.531 18.396 143.285 18.559 L 146.224 19.153 C 147.802 19.478 148.979 20.002 149.753 20.723 C 150.529 21.445 150.916 22.393 150.916 23.568 C 150.916 24.635 150.603 25.572 149.975 26.378 C 149.356 27.185 148.503 27.814 147.418 28.267 C 146.34 28.712 145.097 28.935 143.687 28.935 C 141.539 28.935 139.826 28.486 138.551 27.588 C 137.283 26.682 136.54 25.451 136.321 23.896 L 140.75 23.662 C 140.884 24.321 141.208 24.823 141.722 25.169 C 142.236 25.509 142.895 25.678 143.698 25.678 C 144.487 25.678 145.121 25.526 145.6 25.222 C 146.086 24.911 146.333 24.511 146.34 24.024 C 146.339 23.827 146.291 23.633 146.201 23.457 C 146.112 23.282 145.981 23.131 145.822 23.015 C 145.484 22.746 144.962 22.541 144.258 22.4 L 141.447 21.838 C 139.862 21.52 138.682 20.968 137.906 20.182 C 137.139 19.398 136.755 18.397 136.755 17.18 C 136.755 16.132 137.037 15.23 137.6 14.474 C 138.171 13.717 138.972 13.134 139.999 12.724 C 141.035 12.313 142.247 12.108 143.635 12.108 C 145.685 12.108 147.298 12.543 148.475 13.414 C 149.658 14.283 150.348 15.468 150.546 16.967 Z M 126.652 28.936 C 124.982 28.936 123.545 28.596 122.34 27.917 C 121.153 27.242 120.19 26.231 119.571 25.01 C 118.923 23.752 118.598 22.262 118.598 20.543 C 118.598 18.867 118.923 17.396 119.571 16.129 C 120.22 14.862 121.132 13.876 122.309 13.169 C 123.492 12.462 124.879 12.108 126.473 12.108 C 127.544 12.108 128.54 12.281 129.463 12.628 C 130.393 12.968 131.204 13.48 131.894 14.167 C 132.591 14.853 133.134 15.716 133.521 16.755 C 133.908 17.788 134.102 18.997 134.102 20.384 L 134.102 21.625 L 120.396 21.625 L 120.396 18.825 L 129.865 18.825 C 129.865 18.174 129.724 17.597 129.442 17.095 C 129.168 16.6 128.762 16.192 128.269 15.917 C 127.776 15.627 127.202 15.482 126.546 15.482 C 125.862 15.482 125.257 15.641 124.729 15.96 C 124.207 16.27 123.799 16.692 123.502 17.223 C 123.207 17.745 123.056 18.328 123.048 18.973 L 123.048 21.637 C 123.048 22.443 123.196 23.139 123.491 23.727 C 123.795 24.314 124.222 24.766 124.77 25.084 C 125.321 25.403 125.973 25.562 126.725 25.562 C 127.226 25.562 127.684 25.491 128.1 25.349 C 128.515 25.208 128.87 24.996 129.167 24.712 C 129.463 24.43 129.688 24.084 129.843 23.674 L 134.007 23.95 C 133.809 24.925 133.361 25.832 132.707 26.58 C 132.059 27.323 131.221 27.903 130.192 28.32 C 129.17 28.731 127.99 28.936 126.652 28.936 Z M 105.243 19.195 L 105.243 28.617 L 100.743 28.617 L 100.743 12.321 L 105.034 12.321 L 105.034 15.196 L 105.224 15.196 C 105.567 14.269 106.202 13.479 107.031 12.946 C 107.876 12.387 108.901 12.108 110.107 12.108 C 111.234 12.108 112.216 12.355 113.054 12.85 C 113.893 13.346 114.544 14.054 115.01 14.973 C 115.475 15.885 115.707 16.974 115.707 18.241 L 115.707 28.617 L 111.205 28.617 L 111.205 19.048 C 111.212 18.05 110.958 17.272 110.444 16.713 C 109.931 16.147 109.222 15.864 108.321 15.864 C 107.714 15.864 107.178 15.995 106.715 16.257 C 106.256 16.518 105.897 16.9 105.637 17.403 C 105.383 17.898 105.251 18.496 105.243 19.195 Z M 92.633 28.617 L 92.633 12.321 L 97.136 12.321 L 97.136 28.617 Z M 94.896 10.219 C 94.256 10.232 93.638 9.992 93.173 9.551 C 92.701 9.099 92.464 8.557 92.464 7.928 C 92.464 7.306 92.701 6.772 93.173 6.326 C 93.652 5.873 94.226 5.647 94.896 5.647 C 95.564 5.647 96.135 5.873 96.607 6.326 C 97.086 6.771 97.326 7.305 97.326 7.928 C 97.326 8.557 97.086 9.099 96.607 9.551 C 96.147 9.992 95.532 10.232 94.896 10.219 Z M 89.429 16.967 L 85.307 17.223 C 85.238 16.871 85.082 16.542 84.853 16.267 C 84.606 15.966 84.291 15.729 83.933 15.577 C 83.561 15.401 83.113 15.313 82.591 15.313 C 81.894 15.313 81.306 15.461 80.827 15.758 C 80.348 16.048 80.108 16.437 80.108 16.926 C 80.108 17.314 80.263 17.643 80.572 17.911 C 80.882 18.18 81.414 18.396 82.169 18.559 L 85.106 19.153 C 86.685 19.478 87.861 20.002 88.637 20.723 C 89.412 21.445 89.799 22.393 89.799 23.568 C 89.799 24.635 89.485 25.572 88.858 26.378 C 88.239 27.185 87.386 27.814 86.3 28.267 C 85.222 28.712 83.979 28.935 82.57 28.935 C 80.422 28.935 78.71 28.486 77.434 27.588 C 76.166 26.682 75.423 25.451 75.205 23.896 L 79.632 23.662 C 79.767 24.321 80.091 24.823 80.605 25.169 C 81.118 25.509 81.777 25.678 82.581 25.678 C 83.369 25.678 84.003 25.526 84.484 25.222 C 84.969 24.911 85.216 24.511 85.223 24.024 C 85.223 23.826 85.176 23.632 85.085 23.456 C 84.995 23.281 84.865 23.13 84.705 23.015 C 84.366 22.746 83.845 22.541 83.141 22.4 L 80.33 21.838 C 78.744 21.52 77.564 20.968 76.79 20.182 C 76.021 19.398 75.638 18.397 75.638 17.18 C 75.638 16.132 75.92 15.23 76.484 14.474 C 77.054 13.717 77.853 13.134 78.882 12.724 C 79.918 12.313 81.13 12.108 82.518 12.108 C 84.567 12.108 86.18 12.543 87.358 13.414 C 88.542 14.283 89.232 15.468 89.429 16.967 Z M 67.821 21.679 L 67.821 12.321 L 72.322 12.321 L 72.322 28.618 L 68 28.618 L 68 25.658 L 67.831 25.658 C 67.464 26.613 66.855 27.38 66.003 27.961 C 65.158 28.54 64.125 28.83 62.906 28.83 C 61.821 28.83 60.866 28.582 60.042 28.087 C 59.218 27.592 58.573 26.888 58.108 25.975 C 57.649 25.063 57.417 23.971 57.411 22.697 L 57.411 12.321 L 61.913 12.321 L 61.913 21.89 C 61.92 22.853 62.176 23.613 62.683 24.172 C 63.191 24.731 63.871 25.01 64.724 25.01 C 65.267 25.01 65.774 24.887 66.246 24.639 C 66.718 24.385 67.098 24.011 67.387 23.515 C 67.683 23.02 67.828 22.408 67.821 21.679 Z M 38.576 28.617 L 38.576 6.888 L 43.077 6.888 L 43.077 15.058 L 43.215 15.058 C 43.412 14.619 43.697 14.173 44.072 13.721 C 44.452 13.261 44.945 12.879 45.551 12.575 C 46.163 12.264 46.924 12.109 47.834 12.108 C 48.992 12.099 50.128 12.423 51.11 13.042 C 52.11 13.657 52.91 14.588 53.508 15.833 C 54.107 17.07 54.407 18.623 54.407 20.49 C 54.407 22.308 54.115 23.844 53.53 25.096 C 52.951 26.339 52.162 27.284 51.162 27.929 C 50.168 28.564 49.055 28.882 47.822 28.883 C 46.949 28.883 46.206 28.738 45.593 28.448 C 45.027 28.188 44.52 27.816 44.103 27.354 C 43.743 26.951 43.444 26.497 43.215 26.007 L 43.014 26.007 L 43.014 28.617 Z M 42.982 20.469 C 42.982 21.438 43.116 22.283 43.384 23.005 C 43.652 23.726 44.04 24.288 44.547 24.692 C 45.054 25.088 45.67 25.286 46.397 25.286 C 47.129 25.286 47.749 25.084 48.256 24.681 C 48.763 24.271 49.147 23.705 49.409 22.984 C 49.676 22.255 49.81 21.417 49.81 20.469 C 49.81 19.528 49.68 18.7 49.419 17.986 C 49.159 17.272 48.775 16.713 48.266 16.31 C 47.759 15.907 47.136 15.705 46.397 15.705 C 45.663 15.705 45.043 15.9 44.536 16.289 C 44.036 16.678 43.652 17.23 43.385 17.944 C 43.117 18.658 42.982 19.499 42.982 20.469 Z" fill="rgb(255,255,255)"></path><path d="M 12.869 13.221 L 17.739 18.11 L 13.101 22.766 L 8.232 17.877 Z M 7.874 8.21 L 4.823 5.143 C 4.74 5.059 4.693 4.945 4.693 4.827 C 4.693 4.708 4.74 4.594 4.823 4.51 L 9.186 0.131 C 9.27 0.047 9.383 0 9.501 0 C 9.619 0 9.733 0.047 9.817 0.131 L 24.729 15.103 C 25.524 15.9 25.97 16.982 25.97 18.11 C 25.97 19.239 25.524 20.32 24.729 21.118 L 18.095 27.779 L 21.149 30.844 C 21.232 30.928 21.279 31.042 21.279 31.161 C 21.279 31.279 21.232 31.393 21.149 31.477 L 16.787 35.856 C 16.703 35.94 16.59 35.987 16.471 35.987 C 16.353 35.987 16.24 35.94 16.156 35.856 L 1.241 20.884 C 0.446 20.087 0 19.005 0 17.877 C 0 16.749 0.446 15.667 1.241 14.869 Z" fill="rgb(255,255,255)"></path></g></svg>