<svg xmlns="http://www.w3.org/2000/svg" xmlns:xlink="http://www.w3.org/1999/xlink" viewBox="0 0 161 38"><g transform="translate(1.946 8.009)"><path d="M 148.126 4.008 C 152.401 4.008 155.908 7.666 155.908 12.405 C 155.908 17.144 152.401 20.802 148.126 20.802 C 145.799 20.802 144.108 19.943 142.96 18.479 L 142.96 26.716 L 138.845 26.716 L 138.845 4.455 L 142.96 4.455 L 142.96 6.33 C 144.108 4.868 145.799 4.01 148.126 4.01 M 147.362 16.89 C 149.912 16.89 151.795 15.077 151.795 12.406 C 151.795 9.734 149.912 7.921 147.362 7.921 C 144.842 7.921 142.96 9.735 142.96 12.406 C 142.96 15.079 144.842 16.89 147.362 16.89 Z M 130.963 4.453 L 135.077 4.453 L 135.077 20.356 L 130.963 20.356 L 130.963 18.575 C 130.006 20.006 128.348 20.801 126.21 20.801 C 122.83 20.801 120.183 18.447 120.183 14.218 L 120.183 4.453 L 124.296 4.453 L 124.296 13.708 C 124.296 15.872 125.604 16.985 127.454 16.985 C 129.464 16.985 130.963 15.808 130.963 13.04 Z M 117.287 8.397 L 113.684 8.397 L 113.684 15.012 C 113.684 16.73 114.927 16.762 117.287 16.634 L 117.287 20.356 C 111.514 20.992 109.569 19.306 109.569 15.011 L 109.569 8.397 L 106.796 8.397 L 106.796 4.453 L 109.57 4.453 L 109.57 1.242 L 113.684 0 L 113.684 4.453 L 117.288 4.453 Z M 100.476 7.188 C 101.305 5.026 103.315 4.136 105.323 4.136 L 105.323 8.715 C 103.187 8.461 100.476 9.414 100.476 12.755 L 100.476 20.355 L 96.359 20.355 L 96.359 4.455 L 100.475 4.455 Z M 88.517 4.453 L 92.63 4.453 L 92.63 20.356 L 88.517 20.356 L 88.517 18.48 C 87.369 19.911 85.647 20.801 83.317 20.801 C 79.076 20.801 75.568 17.144 75.568 12.404 C 75.568 7.666 79.076 4.007 83.318 4.007 C 85.647 4.007 87.369 4.898 88.518 6.33 Z M 84.083 16.889 C 86.634 16.889 88.516 15.076 88.516 12.405 C 88.516 9.733 86.635 7.92 84.083 7.92 C 81.563 7.92 79.681 9.734 79.681 12.405 C 79.681 15.077 81.563 16.889 84.083 16.889 Z M 73.993 8.397 L 70.389 8.397 L 70.389 15.012 C 70.389 16.73 71.633 16.762 73.993 16.634 L 73.993 20.356 C 68.221 20.992 66.275 19.306 66.275 15.011 L 66.275 8.397 L 63.501 8.397 L 63.501 4.453 L 66.275 4.453 L 66.275 1.242 L 70.389 0 L 70.389 4.453 L 73.993 4.453 Z M 54.464 8.969 C 54.464 11.323 62.693 9.86 62.693 15.712 C 62.693 19.147 59.695 20.801 56.282 20.801 C 53.093 20.801 50.732 19.465 49.583 17.017 L 53.156 15.012 C 53.603 16.317 54.687 17.08 56.282 17.08 C 57.589 17.08 58.483 16.634 58.483 15.712 C 58.483 13.391 50.254 14.663 50.254 9.065 C 50.254 5.821 53.029 4.008 56.314 4.008 C 58.897 4.008 61.131 5.185 62.375 7.379 L 58.865 9.288 C 58.387 8.271 57.494 7.666 56.314 7.666 C 55.294 7.666 54.464 8.111 54.464 8.969 Z M 11.549 14.735 L 4.343 21.995 C 3.867 22.471 3.221 22.739 2.547 22.74 C 1.872 22.741 1.225 22.475 0.748 22.001 C 0.27 21.526 0.001 20.882 0 20.209 C -0.001 19.537 0.266 18.892 0.742 18.415 L 10.402 8.817 C 10.905 8.318 11.585 8.037 12.294 8.036 C 13.004 8.035 13.685 8.314 14.188 8.812 L 18.759 13.336 L 26.427 5.588 L 21.215 5.588 C 20.573 5.574 19.962 5.31 19.514 4.852 C 19.065 4.395 18.814 3.78 18.814 3.14 C 18.814 2.5 19.065 1.885 19.514 1.428 C 19.962 0.97 20.573 0.706 21.215 0.691 L 32.312 0.691 C 33.795 0.691 34.997 1.889 34.997 3.369 L 34.997 14.335 C 34.982 15.001 34.706 15.635 34.229 16.101 C 33.751 16.567 33.109 16.828 32.441 16.828 C 31.772 16.828 31.13 16.567 30.653 16.101 C 30.175 15.635 29.899 15.001 29.884 14.335 L 29.884 9.137 L 20.992 17.965 C 20.395 18.558 19.59 18.894 18.748 18.901 C 17.905 18.909 17.094 18.587 16.487 18.005 L 13.056 14.716 C 12.853 14.521 12.58 14.414 12.299 14.418 C 12.017 14.422 11.747 14.536 11.549 14.735 Z" fill="rgb(255,255,255)"></path></g></svg>