<svg xmlns="http://www.w3.org/2000/svg" xmlns:xlink="http://www.w3.org/1999/xlink" viewBox="0 0 156 38"><g transform="translate(0.187 0.187)"><path d="M 0 38 L 0 0 L 154.979 0 L 154.979 38 Z" fill="transparent"></path><path d="M 45.131 26.5 L 56.223 26.5 L 56.223 23.163 L 49.073 23.163 L 49.073 10.596 L 45.131 10.596 Z" fill="rgb(255,255,255)"></path><path d="M 62.793 24.276 C 61.212 24.276 60.388 22.897 60.388 20.828 C 60.388 18.759 61.212 17.358 62.793 17.358 C 64.375 17.358 65.221 18.759 65.221 20.828 C 65.221 22.897 64.375 24.276 62.793 24.276 Z M 62.815 26.856 C 66.49 26.856 68.896 24.254 68.896 20.828 C 68.896 17.402 66.49 14.8 62.815 14.8 C 59.163 14.8 56.713 17.402 56.713 20.828 C 56.713 24.254 59.163 26.856 62.815 26.856 Z" fill="rgb(255,255,255)"></path><path d="M 75.258 30.437 C 76.95 30.437 78.443 30.059 79.445 29.169 C 80.358 28.346 80.959 27.101 80.959 25.388 L 80.959 15.111 L 77.485 15.111 L 77.485 16.335 L 77.44 16.335 C 76.772 15.378 75.748 14.778 74.233 14.778 C 71.405 14.778 69.445 17.135 69.445 20.472 C 69.445 23.964 71.828 25.877 74.389 25.877 C 75.77 25.877 76.639 25.321 77.307 24.565 L 77.396 24.565 L 77.396 25.699 C 77.396 27.078 76.75 27.879 75.213 27.879 C 74.01 27.879 73.409 27.368 73.209 26.767 L 69.69 26.767 C 70.046 29.147 72.117 30.437 75.258 30.437 Z M 75.235 23.186 C 73.877 23.186 72.986 22.074 72.986 20.361 C 72.986 18.626 73.877 17.514 75.235 17.514 C 76.75 17.514 77.552 18.804 77.552 20.339 C 77.552 21.94 76.817 23.186 75.235 23.186 Z" fill="rgb(255,255,255)"></path><path d="M 88.103 24.276 C 86.521 24.276 85.697 22.897 85.697 20.828 C 85.697 18.759 86.521 17.358 88.103 17.358 C 89.684 17.358 90.53 18.759 90.53 20.828 C 90.53 22.897 89.684 24.276 88.103 24.276 Z M 88.125 26.856 C 91.8 26.856 94.206 24.254 94.206 20.828 C 94.206 17.402 91.8 14.8 88.125 14.8 C 84.472 14.8 82.022 17.402 82.022 20.828 C 82.022 24.254 84.472 26.856 88.125 26.856 Z" fill="rgb(255,255,255)"></path><path d="M 95.265 26.5 L 98.896 26.5 L 98.896 15.111 L 95.265 15.111 Z M 95.265 13.532 L 98.896 13.532 L 98.896 10.596 L 95.265 10.596 Z" fill="rgb(255,255,255)"></path><path d="M 100.471 30.259 L 104.101 30.259 L 104.101 25.321 L 104.146 25.321 C 104.858 26.278 105.905 26.856 107.375 26.856 C 110.36 26.856 112.342 24.498 112.342 20.806 C 112.342 17.38 110.493 14.778 107.464 14.778 C 105.905 14.778 104.792 15.467 104.012 16.49 L 103.945 16.49 L 103.945 15.111 L 100.471 15.111 Z M 106.44 24.053 C 104.881 24.053 103.99 22.785 103.99 20.939 C 103.99 19.093 104.792 17.692 106.372 17.692 C 107.932 17.692 108.667 18.982 108.667 20.939 C 108.667 22.874 107.82 24.053 106.44 24.053 Z" fill="rgb(255,255,255)"></path><path d="M 118.254 26.856 C 121.239 26.856 123.444 25.566 123.444 23.075 C 123.444 20.161 121.083 19.649 119.078 19.315 C 117.63 19.049 116.338 18.937 116.338 18.137 C 116.338 17.425 117.029 17.091 117.92 17.091 C 118.923 17.091 119.612 17.402 119.747 18.426 L 123.087 18.426 C 122.909 16.179 121.172 14.778 117.942 14.778 C 115.247 14.778 113.021 16.023 113.021 18.426 C 113.021 21.095 115.136 21.629 117.118 21.962 C 118.633 22.229 120.014 22.341 120.014 23.364 C 120.014 24.098 119.323 24.498 118.232 24.498 C 117.029 24.498 116.272 23.942 116.139 22.808 L 112.709 22.808 C 112.82 25.321 114.913 26.856 118.254 26.856 Z" fill="rgb(255,255,255)"></path><path d="M 128.373 26.834 C 129.955 26.834 130.957 26.211 131.781 25.099 L 131.848 25.099 L 131.848 26.5 L 135.323 26.5 L 135.323 15.111 L 131.692 15.111 L 131.692 21.473 C 131.692 22.83 130.935 23.764 129.688 23.764 C 128.529 23.764 127.973 23.075 127.973 21.829 L 127.973 15.111 L 124.365 15.111 L 124.365 22.585 C 124.365 25.121 125.745 26.834 128.373 26.834 Z" fill="rgb(255,255,255)"></path><path d="M 136.903 26.5 L 140.534 26.5 L 140.534 20.116 C 140.534 18.759 141.201 17.803 142.338 17.803 C 143.429 17.803 143.941 18.515 143.941 19.738 L 143.941 26.5 L 147.572 26.5 L 147.572 20.116 C 147.572 18.759 148.218 17.803 149.376 17.803 C 150.467 17.803 150.979 18.515 150.979 19.738 L 150.979 26.5 L 154.61 26.5 L 154.61 19.093 C 154.61 16.535 153.318 14.778 150.734 14.778 C 149.264 14.778 148.04 15.401 147.148 16.78 L 147.104 16.78 C 146.524 15.556 145.389 14.778 143.897 14.778 C 142.249 14.778 141.158 15.556 140.444 16.735 L 140.378 16.735 L 140.378 15.111 L 136.903 15.111 Z" fill="rgb(255,255,255)"></path><path d="M 8.032 3.42 C 6.704 4.347 5.504 5.444 4.461 6.678 C 8.72 6.283 14.131 6.927 20.413 10.064 C 27.121 13.414 32.523 13.527 36.283 12.803 C 35.942 11.772 35.512 10.78 35.003 9.838 C 30.7 10.291 25.183 9.691 18.753 6.481 C 14.67 4.442 11.071 3.602 8.032 3.42 Z M 32.489 6.264 C 29.091 2.472 24.152 0.086 18.655 0.086 C 17.041 0.086 15.475 0.291 13.981 0.678 C 16.004 1.229 18.152 2.036 20.413 3.165 C 25.121 5.515 29.185 6.272 32.489 6.264 Z M 37.086 16.424 C 32.545 17.32 26.273 17.135 18.753 13.38 C 11.723 9.87 6.127 9.914 2.353 10.751 C 2.159 10.795 1.968 10.84 1.783 10.887 C 1.289 11.961 0.894 13.089 0.611 14.261 C 0.914 14.18 1.226 14.104 1.548 14.032 C 6.126 13.016 12.595 13.06 20.413 16.964 C 27.444 20.475 33.039 20.431 36.813 19.593 C 36.942 19.564 37.07 19.535 37.195 19.504 C 37.209 19.212 37.215 18.918 37.215 18.622 C 37.215 17.878 37.172 17.145 37.086 16.424 Z M 36.589 23.416 C 32.091 24.201 26.002 23.9 18.753 20.28 C 11.723 16.769 6.127 16.814 2.353 17.651 C 1.516 17.837 0.762 18.063 0.097 18.302 C 0.096 18.409 0.095 18.515 0.095 18.622 C 0.095 28.86 8.405 37.159 18.655 37.159 C 27.246 37.159 34.473 31.33 36.589 23.416 Z" fill="rgb(255,255,255)"></path></g></svg>