<svg xmlns="http://www.w3.org/2000/svg" xmlns:xlink="http://www.w3.org/1999/xlink" viewBox="0 0 196 38"><g transform="translate(0.117 0.117)"><path d="M 0 38 L 0 0 L 195.54 0 L 195.54 38 Z" fill="transparent"></path><path d="M 188.907 12.23 L 193.524 12.23 L 187.436 28.932 C 185.695 33.741 182.852 35.845 178.603 35.612 L 178.603 31.604 C 180.979 31.638 182.183 30.634 182.986 28.397 L 176.127 12.23 L 180.845 12.23 L 185.194 23.453 Z M 168.352 11.761 C 171.898 11.761 174.676 14.234 174.676 18.676 L 174.676 28.931 L 170.359 28.931 L 170.359 19.21 C 170.359 16.94 168.988 15.769 167.048 15.769 C 164.94 15.769 163.369 17.006 163.369 19.911 L 163.369 28.931 L 159.052 28.931 L 159.052 12.229 L 163.369 12.229 L 163.369 14.1 C 164.371 12.597 166.112 11.761 168.352 11.761 Z M 150.824 12.229 L 155.138 12.229 L 155.138 28.931 L 150.824 28.931 L 150.824 26.96 C 149.619 28.463 147.813 29.398 145.371 29.398 C 140.921 29.398 137.241 25.558 137.241 20.58 C 137.241 15.603 140.921 11.761 145.371 11.761 C 147.813 11.761 149.619 12.697 150.824 14.2 Z M 146.174 25.29 C 148.849 25.29 150.824 23.385 150.824 20.58 C 150.824 17.774 148.849 15.87 146.174 15.87 C 143.531 15.87 141.557 17.774 141.557 20.58 C 141.557 23.385 143.531 25.29 146.174 25.29 Z M 126.905 11.761 C 131.387 11.761 135.068 15.603 135.068 20.58 C 135.068 25.556 131.387 29.398 126.905 29.398 C 124.464 29.398 122.689 28.497 121.485 26.961 L 121.485 35.611 L 117.17 35.611 L 117.17 12.229 L 121.485 12.229 L 121.485 14.2 C 122.689 12.664 124.464 11.762 126.905 11.762 M 126.101 25.292 C 128.778 25.292 130.753 23.387 130.753 20.581 C 130.753 17.776 128.778 15.872 126.101 15.872 C 123.46 15.872 121.485 17.776 121.485 20.581 C 121.485 23.387 123.46 25.292 126.101 25.292 Z M 107.181 11.761 C 110.995 11.761 113.504 14.467 113.504 18.643 L 113.504 28.931 L 109.189 28.931 L 109.189 18.943 C 109.189 16.972 108.185 15.769 106.378 15.769 C 104.472 15.769 103.268 17.041 103.268 19.545 L 103.268 28.931 L 98.951 28.931 L 98.951 18.943 C 98.951 16.972 97.947 15.769 96.142 15.769 C 94.302 15.769 92.997 17.041 92.997 19.545 L 92.997 28.931 L 88.681 28.931 L 88.681 12.229 L 92.997 12.229 L 92.997 13.999 C 93.933 12.597 95.507 11.761 97.647 11.761 C 99.721 11.761 101.26 12.63 102.197 14.167 C 103.234 12.664 104.907 11.761 107.181 11.761 Z M 76.781 29.398 C 71.862 29.398 67.948 25.558 67.948 20.58 C 67.948 15.603 71.862 11.761 76.781 11.761 C 81.698 11.761 85.646 15.603 85.646 20.58 C 85.646 25.556 81.698 29.398 76.781 29.398 Z M 76.781 25.19 C 79.357 25.19 81.33 23.286 81.33 20.58 C 81.33 17.874 79.357 15.97 76.781 15.97 C 74.237 15.97 72.263 17.874 72.263 20.58 C 72.263 23.286 74.237 25.19 76.781 25.19 Z M 59.237 29.398 C 54.152 29.398 50.405 25.558 50.405 20.58 C 50.405 15.603 54.152 11.761 59.237 11.761 C 62.515 11.761 65.359 13.499 66.731 16.071 L 63.017 18.242 C 62.347 16.873 60.909 16.004 59.203 16.004 C 56.627 16.004 54.72 17.908 54.72 20.58 C 54.72 23.219 56.627 25.123 59.203 25.123 C 60.943 25.123 62.381 24.288 63.051 22.919 L 66.797 25.056 C 65.359 27.661 62.515 29.398 59.237 29.398 Z" fill="rgb(255,255,255)"></path><path d="M 13.574 2.359 C 12.131 2.359 10.961 3.528 10.961 4.97 L 10.961 13.12 L 2.648 13.12 C 1.204 13.12 0.033 14.289 0.033 15.73 L 0.033 34.97 C 0.033 36.411 1.204 37.58 2.648 37.58 L 21.687 37.58 C 23.131 37.58 24.302 36.411 24.302 34.97 L 24.302 26.82 L 32.615 26.82 C 34.059 26.82 35.228 25.651 35.228 24.211 L 35.228 4.97 C 35.228 4.627 35.161 4.288 35.03 3.971 C 34.898 3.654 34.706 3.367 34.463 3.125 C 34.221 2.882 33.932 2.69 33.615 2.559 C 33.298 2.428 32.958 2.361 32.615 2.361 Z M 24.302 26.82 L 24.302 15.73 C 24.302 14.289 23.131 13.12 21.687 13.12 L 10.961 13.12 L 10.961 24.211 C 10.961 25.652 12.131 26.82 13.574 26.82 Z" fill="rgb(255,255,255)"></path></g></svg>