<svg xmlns="http://www.w3.org/2000/svg" xmlns:xlink="http://www.w3.org/1999/xlink" viewBox="0 0 193 38"><g transform="translate(0.117 0)"><path d="M 0 38.117 L 0 0.117 L 192.049 0.117 L 192.049 38.117 Z" fill="transparent"></path><path d="M 24.297 11.101 C 22.733 10.057 20.895 9.5 19.015 9.5 L 19.015 0 C 22.776 0 26.452 1.114 29.579 3.202 C 32.706 5.29 35.143 8.257 36.582 11.729 C 38.021 15.201 38.398 19.021 37.664 22.707 C 36.931 26.392 35.12 29.778 32.46 32.435 C 29.801 35.092 26.413 36.902 22.724 37.635 C 19.036 38.368 15.213 37.992 11.738 36.554 C 8.264 35.116 5.294 32.68 3.205 29.556 C 1.115 26.431 0 22.758 0 19 L 9.507 19 C 9.507 20.879 10.065 22.716 11.11 24.278 C 12.154 25.84 13.639 27.058 15.376 27.777 C 17.114 28.496 19.025 28.684 20.87 28.317 C 22.714 27.951 24.408 27.046 25.738 25.718 C 27.067 24.389 27.973 22.696 28.339 20.853 C 28.706 19.011 28.518 17.1 27.798 15.365 C 27.079 13.629 25.86 12.145 24.297 11.101 Z" fill="rgb(255,255,255)"></path><path d="M 9.507 0 C 9.507 1.248 9.261 2.483 8.784 3.635 C 8.306 4.788 7.606 5.835 6.723 6.718 C 5.84 7.6 4.792 8.299 3.638 8.777 C 2.485 9.254 1.249 9.5 0 9.5 L 0 19 C 2.497 19 4.97 18.509 7.277 17.554 C 9.584 16.599 11.68 15.199 13.445 13.435 C 15.211 11.671 16.612 9.576 17.567 7.271 C 18.523 4.966 19.015 2.495 19.015 0 Z" fill="rgb(255,255,255)"></path><path d="M 119.432 13.73 L 114.819 13.73 L 114.819 28.372 L 119.432 28.372 Z" fill="rgb(255,255,255)"></path><path d="M 115.33 10.988 C 115.812 11.47 116.415 11.711 117.138 11.711 C 117.862 11.711 118.455 11.47 118.917 10.988 C 119.38 10.486 119.611 9.884 119.611 9.181 C 119.611 8.458 119.38 7.855 118.917 7.373 C 118.455 6.891 117.862 6.65 117.138 6.65 C 116.415 6.65 115.812 6.891 115.33 7.373 C 114.867 7.855 114.636 8.458 114.636 9.181 C 114.636 9.884 114.867 10.486 115.33 10.988 Z" fill="rgb(255,255,255)"></path><path d="M 48.636 28.371 L 48.636 7.102 L 53.37 7.102 L 53.37 24.214 L 62.807 24.214 L 62.807 28.371 Z" fill="rgb(255,255,255)"></path><path d="M 71.331 28.703 C 69.824 28.703 68.457 28.371 67.231 27.709 C 66.025 27.026 65.07 26.102 64.367 24.937 C 63.663 23.772 63.312 22.467 63.312 21.02 C 63.312 19.574 63.663 18.279 64.367 17.134 C 65.07 15.989 66.025 15.085 67.231 14.423 C 68.437 13.74 69.804 13.398 71.331 13.398 C 72.859 13.398 74.226 13.73 75.432 14.393 C 76.638 15.055 77.593 15.969 78.296 17.134 C 79 18.279 79.352 19.574 79.352 21.02 C 79.352 22.467 79 23.772 78.296 24.937 C 77.593 26.102 76.638 27.026 75.432 27.709 C 74.226 28.371 72.859 28.703 71.331 28.703 Z M 71.331 24.515 C 71.995 24.515 72.578 24.375 73.08 24.093 C 73.583 23.792 73.965 23.38 74.226 22.858 C 74.507 22.316 74.648 21.703 74.648 21.02 C 74.648 20.338 74.507 19.745 74.226 19.243 C 73.944 18.721 73.553 18.319 73.05 18.038 C 72.568 17.737 71.995 17.586 71.331 17.586 C 70.688 17.586 70.115 17.737 69.613 18.038 C 69.11 18.319 68.718 18.721 68.437 19.243 C 68.156 19.765 68.015 20.368 68.015 21.051 C 68.015 21.713 68.156 22.316 68.437 22.858 C 68.718 23.38 69.11 23.792 69.613 24.093 C 70.115 24.375 70.688 24.515 71.331 24.515 Z" fill="rgb(255,255,255)"></path><path d="M 83.006 34.096 C 84.232 34.658 85.649 34.939 87.257 34.939 C 88.825 34.939 90.222 34.628 91.448 34.005 C 92.674 33.383 93.639 32.519 94.342 31.414 C 95.046 30.31 95.398 29.004 95.398 27.498 L 95.398 13.73 L 90.875 13.73 L 90.875 14.714 C 90.539 14.431 90.157 14.193 89.729 14.001 C 88.945 13.619 88.051 13.429 87.046 13.429 C 85.699 13.429 84.503 13.75 83.458 14.393 C 82.413 15.015 81.589 15.879 80.986 16.984 C 80.383 18.068 80.081 19.293 80.081 20.659 C 80.081 22.005 80.383 23.23 80.986 24.335 C 81.589 25.439 82.413 26.313 83.458 26.956 C 84.503 27.598 85.699 27.92 87.046 27.92 C 88.031 27.92 88.925 27.729 89.729 27.347 C 90.119 27.162 90.471 26.945 90.785 26.694 L 90.785 27.618 C 90.785 28.643 90.453 29.436 89.79 29.998 C 89.146 30.561 88.252 30.842 87.106 30.842 C 86.182 30.842 85.388 30.681 84.724 30.36 C 84.081 30.039 83.498 29.567 82.976 28.944 L 80.141 31.776 C 80.845 32.78 81.8 33.553 83.006 34.096 Z M 89.579 23.401 C 89.116 23.682 88.564 23.822 87.92 23.822 C 87.277 23.822 86.714 23.682 86.232 23.401 C 85.769 23.119 85.408 22.738 85.146 22.256 C 84.885 21.754 84.754 21.221 84.754 20.659 C 84.754 20.056 84.885 19.514 85.146 19.032 C 85.408 18.55 85.78 18.169 86.262 17.887 C 86.744 17.606 87.297 17.466 87.92 17.466 C 88.564 17.466 89.116 17.606 89.579 17.887 C 90.061 18.169 90.423 18.55 90.664 19.032 C 90.925 19.514 91.056 20.056 91.056 20.659 C 91.056 21.262 90.925 21.804 90.664 22.286 C 90.423 22.748 90.061 23.119 89.579 23.401 Z" fill="rgb(255,255,255)"></path><path d="M 105.105 28.703 C 103.597 28.703 102.23 28.371 101.004 27.709 C 99.798 27.026 98.843 26.102 98.14 24.937 C 97.436 23.772 97.084 22.467 97.084 21.02 C 97.084 19.574 97.436 18.279 98.14 17.134 C 98.843 15.989 99.798 15.085 101.004 14.423 C 102.21 13.74 103.577 13.398 105.105 13.398 C 106.632 13.398 107.999 13.73 109.204 14.393 C 110.411 15.055 111.365 15.969 112.069 17.134 C 112.773 18.279 113.124 19.574 113.124 21.02 C 113.124 22.467 112.773 23.772 112.069 24.937 C 111.365 26.102 110.411 27.026 109.204 27.709 C 107.999 28.371 106.632 28.703 105.105 28.703 Z M 105.105 24.515 C 105.768 24.515 106.35 24.375 106.853 24.093 C 107.355 23.792 107.737 23.38 107.999 22.858 C 108.28 22.316 108.421 21.703 108.421 21.02 C 108.421 20.338 108.28 19.745 107.999 19.243 C 107.717 18.721 107.326 18.319 106.823 18.038 C 106.341 17.737 105.768 17.586 105.105 17.586 C 104.461 17.586 103.888 17.737 103.386 18.038 C 102.883 18.319 102.491 18.721 102.21 19.243 C 101.928 19.765 101.788 20.368 101.788 21.051 C 101.788 21.713 101.928 22.316 102.21 22.858 C 102.491 23.38 102.883 23.792 103.386 24.093 C 103.888 24.375 104.461 24.515 105.105 24.515 Z" fill="rgb(255,255,255)"></path><path d="M 130.519 28.673 C 129.535 28.673 128.63 28.482 127.806 28.1 C 127.372 27.9 126.98 27.66 126.631 27.381 L 126.631 34.548 L 122.077 34.548 L 122.077 13.73 L 126.69 13.73 L 126.69 14.74 C 127.025 14.467 127.397 14.23 127.806 14.031 C 128.63 13.629 129.535 13.429 130.519 13.429 C 131.906 13.429 133.133 13.76 134.197 14.423 C 135.283 15.086 136.127 15.989 136.73 17.134 C 137.354 18.279 137.665 19.585 137.665 21.051 C 137.665 22.517 137.354 23.822 136.73 24.967 C 136.127 26.112 135.283 27.016 134.197 27.679 C 133.133 28.341 131.906 28.673 130.519 28.673 Z M 129.676 24.515 C 130.338 24.515 130.912 24.365 131.394 24.063 C 131.897 23.762 132.288 23.35 132.57 22.828 C 132.851 22.306 132.992 21.713 132.992 21.051 C 132.992 20.368 132.851 19.765 132.57 19.243 C 132.288 18.721 131.897 18.319 131.394 18.038 C 130.912 17.737 130.349 17.586 129.705 17.586 C 129.063 17.586 128.489 17.737 127.987 18.038 C 127.504 18.319 127.123 18.721 126.842 19.243 C 126.56 19.765 126.419 20.368 126.419 21.051 C 126.419 21.713 126.55 22.306 126.811 22.828 C 127.093 23.35 127.484 23.762 127.987 24.063 C 128.489 24.365 129.052 24.515 129.676 24.515 Z" fill="rgb(255,255,255)"></path><path d="M 142.179 28.402 C 143.023 28.623 143.877 28.733 144.741 28.733 C 146.57 28.733 148.017 28.311 149.083 27.468 C 150.168 26.624 150.711 25.489 150.711 24.063 C 150.711 23.14 150.541 22.396 150.198 21.834 C 149.857 21.252 149.415 20.79 148.872 20.448 C 148.329 20.107 147.756 19.836 147.153 19.635 C 146.55 19.434 145.977 19.263 145.435 19.123 C 144.892 18.982 144.45 18.821 144.108 18.641 C 143.767 18.46 143.596 18.219 143.596 17.917 C 143.596 17.636 143.727 17.425 143.987 17.285 C 144.249 17.124 144.64 17.044 145.163 17.044 C 145.706 17.044 146.259 17.154 146.821 17.375 C 147.404 17.596 147.927 17.978 148.389 18.52 L 151.012 15.869 C 150.35 15.025 149.485 14.393 148.42 13.971 C 147.375 13.529 146.229 13.308 144.983 13.308 C 143.797 13.308 142.762 13.509 141.878 13.911 C 140.992 14.312 140.309 14.865 139.827 15.568 C 139.345 16.25 139.103 17.064 139.103 18.008 C 139.103 18.892 139.274 19.625 139.616 20.207 C 139.957 20.769 140.4 21.211 140.942 21.533 C 141.485 21.854 142.058 22.105 142.661 22.286 C 143.264 22.467 143.837 22.637 144.38 22.798 C 144.922 22.939 145.365 23.109 145.706 23.31 C 146.068 23.491 146.249 23.762 146.249 24.124 C 146.249 24.405 146.098 24.626 145.796 24.786 C 145.515 24.947 145.103 25.027 144.561 25.027 C 143.776 25.027 143.053 24.887 142.39 24.606 C 141.726 24.304 141.153 23.893 140.671 23.37 L 138.048 26.022 C 138.551 26.564 139.154 27.046 139.857 27.468 C 140.581 27.869 141.355 28.181 142.179 28.402 Z" fill="rgb(255,255,255)"></path><path d="M 159.124 28.703 C 157.778 28.703 156.582 28.432 155.537 27.89 C 154.511 27.327 153.708 26.564 153.125 25.6 C 152.541 24.616 152.25 23.491 152.25 22.226 L 152.25 13.73 L 156.863 13.73 L 156.863 22.165 C 156.863 22.668 156.943 23.099 157.105 23.461 C 157.285 23.822 157.547 24.104 157.888 24.305 C 158.23 24.505 158.642 24.606 159.124 24.606 C 159.808 24.606 160.35 24.395 160.753 23.973 C 161.155 23.531 161.355 22.929 161.355 22.165 L 161.355 13.73 L 165.968 13.73 L 165.968 22.196 C 165.968 23.481 165.677 24.616 165.094 25.6 C 164.511 26.564 163.707 27.327 162.682 27.89 C 161.657 28.432 160.471 28.703 159.124 28.703 Z" fill="rgb(255,255,255)"></path><path d="M 172.874 13.73 L 168.261 13.73 L 168.261 28.372 L 172.874 28.372 L 172.874 19.815 C 172.874 19.313 172.974 18.892 173.175 18.55 C 173.396 18.209 173.688 17.948 174.05 17.767 C 174.412 17.566 174.824 17.466 175.286 17.466 C 175.949 17.466 176.502 17.676 176.944 18.098 C 177.407 18.5 177.638 19.072 177.638 19.815 L 177.638 28.372 L 182.251 28.372 L 182.251 19.815 C 182.251 19.313 182.351 18.892 182.552 18.55 C 182.774 18.209 183.065 17.948 183.427 17.767 C 183.788 17.566 184.201 17.466 184.663 17.466 C 185.326 17.466 185.879 17.676 186.321 18.098 C 186.783 18.5 187.014 19.072 187.014 19.815 L 187.014 28.372 L 191.628 28.372 L 191.628 19.303 C 191.628 18.078 191.366 17.034 190.843 16.17 C 190.341 15.286 189.647 14.614 188.763 14.152 C 187.899 13.67 186.904 13.429 185.778 13.429 C 184.632 13.429 183.597 13.68 182.673 14.182 C 182.072 14.502 181.547 14.915 181.097 15.42 C 180.678 14.891 180.169 14.458 179.567 14.121 C 178.763 13.66 177.849 13.429 176.824 13.429 C 175.738 13.429 174.764 13.66 173.899 14.121 C 173.523 14.314 173.182 14.544 172.874 14.812 Z" fill="rgb(255,255,255)"></path></g></svg>