<svg xmlns="http://www.w3.org/2000/svg" xmlns:xlink="http://www.w3.org/1999/xlink" viewBox="0 0 157 38"><g transform="translate(0.609 0.608)"><path d="M 0 38 L 0 0 L 155.955 0 L 155.955 38 Z" fill="transparent"></path><path d="M 45.745 26.226 L 56.84 26.226 L 56.84 22.889 L 49.689 22.889 L 49.689 10.321 L 45.745 10.321 Z" fill="rgb(255,255,255)"></path><path d="M 63.413 24.001 C 61.831 24.001 61.007 22.622 61.007 20.553 C 61.007 18.485 61.831 17.083 63.413 17.083 C 64.995 17.083 65.841 18.485 65.841 20.553 C 65.841 22.622 64.995 24.001 63.413 24.001 Z M 63.435 26.581 C 67.111 26.581 69.518 23.979 69.518 20.553 C 69.518 17.128 67.111 14.525 63.435 14.525 C 59.781 14.525 57.331 17.128 57.331 20.553 C 57.331 23.979 59.781 26.581 63.435 26.581 Z" fill="rgb(255,255,255)"></path><path d="M 75.881 30.163 C 77.575 30.163 79.067 29.784 80.07 28.895 C 80.983 28.072 81.585 26.826 81.585 25.113 L 81.585 14.837 L 78.109 14.837 L 78.109 16.06 L 78.065 16.06 C 77.396 15.103 76.372 14.503 74.857 14.503 C 72.027 14.503 70.066 16.861 70.066 20.197 C 70.066 23.69 72.45 25.603 75.013 25.603 C 76.394 25.603 77.263 25.047 77.931 24.29 L 78.02 24.29 L 78.02 25.425 C 78.02 26.804 77.374 27.605 75.837 27.605 C 74.634 27.605 74.032 27.093 73.832 26.492 L 70.312 26.492 C 70.668 28.872 72.74 30.163 75.881 30.163 Z M 75.859 22.911 C 74.5 22.911 73.609 21.799 73.609 20.086 C 73.609 18.351 74.5 17.239 75.859 17.239 C 77.374 17.239 78.176 18.529 78.176 20.064 C 78.176 21.666 77.441 22.911 75.859 22.911 Z" fill="rgb(255,255,255)"></path><path d="M 88.73 24.001 C 87.148 24.001 86.324 22.622 86.324 20.553 C 86.324 18.485 87.148 17.083 88.73 17.083 C 90.312 17.083 91.159 18.485 91.159 20.553 C 91.159 22.622 90.312 24.001 88.73 24.001 Z M 88.753 26.581 C 92.429 26.581 94.834 23.979 94.834 20.553 C 94.834 17.128 92.429 14.525 88.753 14.525 C 85.099 14.525 82.648 17.128 82.648 20.553 C 82.648 23.979 85.099 26.581 88.753 26.581 Z" fill="rgb(255,255,255)"></path><path d="M 95.897 26.226 L 99.528 26.226 L 99.528 14.837 L 95.897 14.837 Z M 95.897 13.257 L 99.528 13.257 L 99.528 10.321 L 95.897 10.321 Z" fill="rgb(255,255,255)"></path><path d="M 101.102 29.985 L 104.734 29.985 L 104.734 25.047 L 104.778 25.047 C 105.491 26.003 106.539 26.581 108.009 26.581 C 110.995 26.581 112.977 24.223 112.977 20.531 C 112.977 17.106 111.128 14.503 108.098 14.503 C 106.539 14.503 105.425 15.192 104.644 16.216 L 104.578 16.216 L 104.578 14.837 L 101.102 14.837 Z M 107.074 23.779 C 105.514 23.779 104.622 22.511 104.622 20.664 C 104.622 18.818 105.425 17.417 107.006 17.417 C 108.565 17.417 109.301 18.707 109.301 20.664 C 109.301 22.6 108.454 23.779 107.074 23.779 Z" fill="rgb(255,255,255)"></path><path d="M 118.889 26.581 C 121.875 26.581 124.081 25.291 124.081 22.8 C 124.081 19.886 121.719 19.374 119.713 19.041 C 118.265 18.774 116.973 18.663 116.973 17.862 C 116.973 17.15 117.664 16.816 118.555 16.816 C 119.557 16.816 120.248 17.128 120.382 18.151 L 123.724 18.151 C 123.546 15.904 121.808 14.503 118.577 14.503 C 115.882 14.503 113.653 15.749 113.653 18.151 C 113.653 20.82 115.77 21.354 117.753 21.688 C 119.268 21.955 120.65 22.066 120.65 23.089 C 120.65 23.823 119.959 24.223 118.868 24.223 C 117.664 24.223 116.906 23.667 116.773 22.533 L 113.342 22.533 C 113.453 25.047 115.548 26.581 118.889 26.581 Z" fill="rgb(255,255,255)"></path><path d="M 129.014 26.559 C 130.596 26.559 131.598 25.936 132.423 24.824 L 132.489 24.824 L 132.489 26.225 L 135.965 26.225 L 135.965 14.836 L 132.333 14.836 L 132.333 21.198 C 132.333 22.555 131.576 23.489 130.329 23.489 C 129.17 23.489 128.613 22.8 128.613 21.554 L 128.613 14.836 L 125.004 14.836 L 125.004 22.31 C 125.004 24.846 126.385 26.559 129.014 26.559 Z" fill="rgb(255,255,255)"></path><path d="M 137.546 26.226 L 141.178 26.226 L 141.178 19.842 C 141.178 18.485 141.846 17.528 142.982 17.528 C 144.074 17.528 144.586 18.24 144.586 19.463 L 144.586 26.226 L 148.218 26.226 L 148.218 19.842 C 148.218 18.485 148.864 17.528 150.022 17.528 C 151.114 17.528 151.626 18.24 151.626 19.463 L 151.626 26.226 L 155.258 26.226 L 155.258 18.818 C 155.258 16.26 153.966 14.503 151.382 14.503 C 149.911 14.503 148.686 15.126 147.795 16.505 L 147.75 16.505 C 147.17 15.282 146.034 14.503 144.541 14.503 C 142.893 14.503 141.801 15.282 141.088 16.46 L 141.022 16.46 L 141.022 14.837 L 137.546 14.837 Z" fill="rgb(255,255,255)"></path><path d="M 23.589 1.224 L 19.938 0.247 L 16.861 11.711 L 14.083 1.361 L 10.432 2.338 L 13.434 13.521 L 5.958 6.057 L 3.285 8.726 L 11.485 16.912 L 1.274 14.18 L 0.295 17.826 L 11.452 20.81 C 11.325 20.26 11.257 19.687 11.257 19.098 C 11.257 14.93 14.642 11.551 18.817 11.551 C 22.992 11.551 26.377 14.93 26.377 19.098 C 26.377 19.683 26.31 20.253 26.184 20.8 L 36.323 23.512 L 37.302 19.867 L 26.1 16.871 L 36.312 14.139 L 35.334 10.493 L 24.133 13.49 L 31.608 6.027 L 28.935 3.358 L 20.85 11.431 Z" fill="rgb(255,255,255)"></path><path d="M 26.172 20.843 C 25.859 22.164 25.198 23.351 24.292 24.302 L 31.637 31.636 L 34.31 28.967 Z" fill="rgb(255,255,255)"></path><path d="M 24.218 24.378 C 23.301 25.314 22.141 26.013 20.84 26.372 L 23.513 36.332 L 27.164 35.355 Z" fill="rgb(255,255,255)"></path><path d="M 20.703 26.409 C 20.1 26.564 19.468 26.646 18.816 26.646 C 18.118 26.646 17.441 26.552 16.799 26.375 L 14.124 36.343 L 17.775 37.32 Z" fill="rgb(255,255,255)"></path><path d="M 16.671 26.338 C 15.39 25.96 14.251 25.253 13.352 24.314 L 5.988 31.666 L 8.661 34.335 Z" fill="rgb(255,255,255)"></path><path d="M 13.29 24.249 C 12.407 23.305 11.763 22.134 11.457 20.833 L 1.284 23.554 L 2.262 27.2 Z" fill="rgb(255,255,255)"></path></g></svg>