<svg version="1.1" id="Layer_1" xmlns:x="ns_extend;" xmlns:i="ns_ai;" xmlns:graph="ns_graphs;" xmlns="http://www.w3.org/2000/svg" xmlns:xlink="http://www.w3.org/1999/xlink" x="0px" y="0px" viewBox="0 0 214.3 50" style="enable-background:new 0 0 214.3 50;" xml:space="preserve">
 <style type="text/css">
  .st0{fill:#FFFFFF;}
 </style>
 <metadata>
  <sfw xmlns="ns_sfw;">
   <slices>
   </slices>
   <sliceSourceBounds bottomLeftOrigin="true" height="50" width="214.3" x="40.1" y="-212.8">
   </sliceSourceBounds>
  </sfw>
 </metadata>
 <g>
  <path class="st0" d="M93,12.4c0,0,0.7,0.7,0.7,2.9v19.6c0,0,0.3,1.8-0.7,2.5h14.8V30c0,0-0.8,0.5-3.2,0.5H101v-2.8h2.6
		c0,0,1.1,0,1.7,0.5v-6.6c0,0-0.9,0.5-1.7,0.5H101v-2.7h3.6c0,0,2.2,0,3.2,0.6v-7.5H93z">
  </path>
  <path class="st0" d="M65.8,12.4c0,0,0.9,0.5,1.4,2l8.1,23.1h9c0,0-1-0.7-0.6-1.9L91.1,14c0,0,0.8-1.4,1.3-1.6h-9.8
		c0,0,0.5,0.9,0.3,1.6L79,27.7l-3.9-14c0,0-0.1-1,0.4-1.3H65.8z">
  </path>
  <path class="st0" d="M198,37.5c0,0-0.8-0.7-0.8-2.6c0,0,0.5-5.1-4.9-8.7c1.5-1.5,2.3-3.5,2.3-5.7c0-4.7-4-8.5-8.8-8.5
		c-0.3,0-0.7,0-1,0c-1.2,0-3.6,0.6-3.6,0.6c-2.8,0.9-4-0.6-4-0.6v23c0,0,0.2,1.7-0.7,2.6h9.1c0,0-0.9-0.8-0.8-2.6V30
		c0,0,6.5-2.2,4.8,4.8c0,0,0.2,1.6-0.8,2.6H198z M185.5,23.7c-0.2,0-0.4,0-0.6-0.1v-4.4c0.2-0.1,0.4-0.1,0.6-0.1
		c1.3,0,2.3,1,2.3,2.3C187.8,22.7,186.8,23.7,185.5,23.7">
  </path>
  <path class="st0" d="M165.6,28.2c0,1.3-1,2.4-2.3,2.4c-1.2,0-2.3-1.1-2.3-2.4V14.9c0-1.6,0.9-2.4,0.9-2.4H153c0,0,0.7,0.5,0.7,2.4
		v12.9c0,5.7,4.3,10.3,9.7,10.3c5.4,0,9.7-4.6,9.7-10.3v-13c0-1.6,0.9-2.4,0.9-2.4h-9c0,0,0.7,0.5,0.7,2.4L165.6,28.2z">
  </path>
  <path class="st0" d="M134.9,12.4V20c0,0,0.3-0.6,1.9-0.6h2.7v15.5c0,0,0.1,1.9-0.8,2.6h9.1c0,0-0.8-0.8-0.8-2.6V19.4h2.8
		c0,0,1.6-0.1,1.8,0.6v-7.5H134.9z">
  </path>
  <path class="st0" d="M110.2,12.4c0,0,0.8,0.8,0.8,2.4v20c0,0,0.1,2-0.8,2.6h8.9c0,0-0.8-0.4-0.8-2.6V24.6l7,12.9h7.7
		c0,0-0.9-0.5-0.9-2.6v-20c0,0-0.2-1.3,0.9-2.4H124c0,0,0.7,0.8,0.7,2.4v10l-6.8-12.4H110.2z">
  </path>
  <polygon class="st0" points="40.3,16.5 51,0 56.3,0 42.8,21 	">
  </polygon>
  <path class="st0" d="M43.8,22.8l2.6,4.6L62.7,2c0,0,1.1-2,2.9-2h-7.1L43.8,22.8z">
  </path>
  <path class="st0" d="M48.8,0h-8.1c0,0,1.7,0.9,0.5,2.7l-4.6,7.2l2.7,4.8L48.8,0z">
  </path>
  <polygon class="st0" points="67.3,3 69.5,0.1 214.3,0.1 214.3,3 	">
  </polygon>
  <polygon class="st0" points="37,49.8 39.2,47 214.2,47 214.2,49.8 	">
  </polygon>
  <path class="st0" d="M0,0c0,0,3.9,0,6.9,5.4L31.8,50L39,39L17.5,0H0z">
  </path>
  <path class="st0" d="M19.9,0l20.4,36.9l3.2-5.1L27.3,3c0,0-1.8-2.4,0.5-3H19.9z">
  </path>
  <path class="st0" d="M199.3,12.4c0,0,0.7,0.7,0.7,2.9v19.6c0,0,0.3,1.8-0.7,2.5h14.8V30c0,0-0.8,0.5-3.2,0.5h-3.6v-2.8h2.6
		c0,0,1.1,0,1.7,0.5v-6.6c0,0-0.9,0.5-1.7,0.5h-2.6v-2.7h3.6c0,0,2.2,0,3.2,0.6v-7.5H199.3z">
  </path>
 </g>
</svg>